<svg
            version="1.0"
            xmlns="http://www.w3.org/2000/svg"
            width="5vw"
            height="5vh"
            viewBox="0 0 300.000000 300.000000"
            preserveAspectRatio="xMidYMid meet"
          >
            <g
              transform="translate(60.000000,200.000000) scale(0.100000,-0.100000)"
              fill="#ffffff"
              stroke="none"
            >
              <path
                d="M750 1924 c-25 -14 -56 -32 -69 -41 l-24 -15 129 -129 129 -129 115 0 115 0 -170 170 c-93 94 -172 170 -175 170 -3 0 -25 -12 -50 -26z"
              />
              <path
                d="M1430 1760 l0 -190 -58 0 -59 0 -56 -77 -56 -78 112 -5 112 -5 3 -107 3 -108 -198 0 -198 -1 -42 -58 c-73 -100 -99 -91 261 -91 l316 0 0 195 0 195 59 0 60 0 56 78 56 77 -113 5 -113 5 -3 108 -3 107 199 0 198 0 47 65 c26 36 47 67 47 70 0 3 -142 5 -315 5 l-315 0 0 -190z"
              />
              <path
                d="M2067 1882 l-47 -67 76 -6 c64 -6 80 -11 104 -34 37 -36 46 -75 26 -117 -27 -57 -45 -62 -218 -68 l-156 -5 -55 -75 -55 -75 211 -3 c162 -2 222 1 261 12 146 43 219 183 175 340 -24 85 -140 167 -237 166 -34 -1 -41 -6 -85 -68z"
              />
              <path
                d="M776 1554 c-63 -20 -146 -101 -164 -160 -15 -52 -15 -125 0 -175 14 -50 69 -114 117 -139 42 -21 143 -42 152 -32 4 4 28 36 54 72 l47 65 -76 6 c-69 5 -80 8 -109 37 -60 60 -34 148 52 172 20 5 95 10 167 10 l130 0 20 28 c12 15 38 51 58 80 l38 52 -219 -1 c-164 0 -230 -4 -267 -15z"
              />
              <path
                d="M2025 1220 c93 -93 173 -170 177 -170 6 0 126 67 138 77 2 2 -54 62 -125 133 l-130 130 -115 0 -115 0 170 -170z"
              />
            </g>
          </svg>