<?xml version="1.0" encoding="UTF-8"?>
<!DOCTYPE svg PUBLIC "-//W3C//DTD SVG 1.1//EN" "http://www.w3.org/Graphics/SVG/1.1/DTD/svg11.dtd">
<svg xmlns="http://www.w3.org/2000/svg" version="1.1" width="1001px" height="1001px" style="shape-rendering:geometricPrecision; text-rendering:geometricPrecision; image-rendering:optimizeQuality; fill-rule:evenodd; clip-rule:evenodd" xmlns:xlink="http://www.w3.org/1999/xlink">
<g><path style="opacity:0.971" fill="#000000" d="M 265.5,347.5 C 266.552,347.351 267.552,347.517 268.5,348C 306.167,386.333 343.833,424.667 381.5,463C 355.833,463.667 330.167,463.667 304.5,463C 275.653,434.32 246.986,405.486 218.5,376.5C 234.027,366.572 249.694,356.905 265.5,347.5 Z"/></g>
<g><path style="opacity:0.987" fill="#000000" d="M 475.5,347.5 C 547.501,347.333 619.501,347.5 691.5,348C 679.693,364.64 667.693,381.14 655.5,397.5C 611.838,398.5 568.172,398.833 524.5,398.5C 524.5,421.5 524.5,444.5 524.5,467.5C 550.842,467.167 577.175,467.5 603.5,468.5C 589.973,486.86 576.64,505.36 563.5,524C 550.504,524.5 537.504,524.667 524.5,524.5C 524.5,567.167 524.5,609.833 524.5,652.5C 452.83,652.833 381.164,652.5 309.5,651.5C 321.378,634.911 333.378,618.411 345.5,602C 388.832,601.5 432.165,601.333 475.5,601.5C 475.5,578.5 475.5,555.5 475.5,532.5C 449.165,532.667 422.831,532.5 396.5,532C 409.833,513.667 423.167,495.333 436.5,477C 449.496,476.5 462.496,476.333 475.5,476.5C 475.5,433.5 475.5,390.5 475.5,347.5 Z"/></g>
<g><path style="opacity:0.977" fill="#000000" d="M 706.5,347.5 C 738.522,347.104 765.022,358.77 786,382.5C 807.283,416.342 807.95,450.675 788,485.5C 772.535,505.994 752.035,518.494 726.5,523C 700.189,524.118 673.856,524.618 647.5,524.5C 624.5,524.167 601.5,523.833 578.5,523.5C 591.974,504.859 605.64,486.359 619.5,468C 651.833,467.667 684.167,467.333 716.5,467C 739.656,460.189 748.489,445.023 743,421.5C 737.386,409.106 727.886,401.606 714.5,399C 699.822,398.833 685.155,398.333 670.5,397.5C 682.912,381.094 694.912,364.428 706.5,347.5 Z"/></g>
<g><path style="opacity:0.984" fill="#000000" d="M 276.5,476.5 C 324.834,476.333 373.168,476.5 421.5,477C 408.167,495.333 394.833,513.667 381.5,532C 349.5,532.333 317.5,532.667 285.5,533C 263.203,537.965 253.37,551.798 256,574.5C 260.35,588.849 269.85,597.683 284.5,601C 299.496,601.5 314.496,601.667 329.5,601.5C 329.649,602.552 329.483,603.552 329,604.5C 317.307,620.026 305.807,635.693 294.5,651.5C 258.871,653.584 230.704,640.251 210,611.5C 197.833,587.929 195.166,563.263 202,537.5C 210.584,511.249 227.751,493.082 253.5,483C 261.163,480.338 268.829,478.172 276.5,476.5 Z"/></g>
<g><path style="opacity:0.969" fill="#000000" d="M 619.5,536.5 C 644.836,536.333 670.169,536.5 695.5,537C 724.541,565.707 753.207,594.707 781.5,624C 766.196,633.322 750.862,642.655 735.5,652C 734.167,652.667 732.833,652.667 731.5,652C 694.333,614.167 657.167,576.333 620,538.5C 619.536,537.906 619.369,537.239 619.5,536.5 Z"/></g>
</svg>
